<svg width="220" height="13" viewBox="0 0 220 13" fill="none" xmlns="http://www.w3.org/2000/svg">
<path d="M0.825639 12V1.09091H8.27237V3.23224H3.46236V5.46946H7.7983V7.61612H3.46236V12H0.825639ZM16.1998 1.09091H18.8312V8.12749C18.8312 8.9407 18.6377 9.64915 18.2506 10.2528C17.8635 10.853 17.3238 11.3182 16.6313 11.6484C15.9388 11.9751 15.1345 12.1385 14.2183 12.1385C13.2915 12.1385 12.4818 11.9751 11.7893 11.6484C11.0969 11.3182 10.5589 10.853 10.1753 10.2528C9.79181 9.64915 9.60005 8.9407 9.60005 8.12749V1.09091H12.2368V7.89844C12.2368 8.27486 12.3184 8.61044 12.4818 8.90518C12.6487 9.19993 12.8813 9.43075 13.1796 9.59766C13.4779 9.76456 13.8241 9.84801 14.2183 9.84801C14.6125 9.84801 14.9569 9.76456 15.2517 9.59766C15.55 9.43075 15.7826 9.19993 15.9495 8.90518C16.1164 8.61044 16.1998 8.27486 16.1998 7.89844V1.09091ZM29.7683 1.09091V12H27.5311L23.1898 5.70383H23.1206V12H20.4838V1.09091H22.753L27.0463 7.37642H27.1369V1.09091H29.7683ZM35.4585 12H31.4262V1.09091H35.4532C36.5647 1.09091 37.5218 1.3093 38.3243 1.74609C39.1304 2.17933 39.7519 2.80433 40.1887 3.62109C40.6254 4.4343 40.8438 5.40732 40.8438 6.54013C40.8438 7.67649 40.6254 8.65305 40.1887 9.46982C39.7554 10.2866 39.1357 10.9134 38.3296 11.3501C37.5235 11.7834 36.5665 12 35.4585 12ZM34.0629 9.75213H35.3573C35.9681 9.75213 36.4848 9.64915 36.9074 9.44318C37.3335 9.23366 37.6549 8.89453 37.8715 8.42578C38.0917 7.95348 38.2018 7.32493 38.2018 6.54013C38.2018 5.75533 38.0917 5.13033 37.8715 4.66513C37.6514 4.19638 37.3264 3.85902 36.8968 3.65305C36.4706 3.44354 35.945 3.33878 35.32 3.33878H34.0629V9.75213ZM44.0985 12H41.2646L44.9454 1.09091H48.4557L52.1365 12H49.3026L46.7405 3.83949H46.6553L44.0985 12ZM43.7203 7.70668H49.6436V9.70952H43.7203V7.70668ZM53.311 1.09091H56.5763L59.3461 7.84517H59.474L62.2439 1.09091H65.5091V12H62.9417V5.29901H62.8511L60.2304 11.9308H58.5898L55.969 5.26172H55.8785V12H53.311V1.09091ZM67.1538 12V1.09091H74.7603V3.23224H69.7905V5.46946H74.3714V7.61612H69.7905V9.85866H74.7603V12H67.1538ZM85.696 1.09091V12H83.4588L79.1175 5.70383H79.0483V12H76.4116V1.09091H78.6808L82.9741 7.37642H83.0646V1.09091H85.696ZM86.9971 3.23224V1.09091H96.2176V3.23224H92.9097V12H90.3103V3.23224H86.9971ZM98.5028 12H95.6689L99.3497 1.09091H102.86L106.541 12H103.707L101.145 3.83949H101.06L98.5028 12ZM98.1246 7.70668H104.048V9.70952H98.1246V7.70668ZM107.715 12V1.09091H110.352V9.85866H114.89V12H107.715ZM122.152 4.36151C122.116 3.97088 121.958 3.66726 121.678 3.45064C121.401 3.23047 121.005 3.12038 120.49 3.12038C120.149 3.12038 119.865 3.16477 119.638 3.25355C119.411 3.34233 119.24 3.46484 119.126 3.62109C119.013 3.77379 118.954 3.94957 118.951 4.14844C118.944 4.31179 118.975 4.45561 119.047 4.5799C119.121 4.70419 119.228 4.81428 119.366 4.91016C119.508 5.00249 119.679 5.08416 119.877 5.15518C120.076 5.22621 120.3 5.28835 120.549 5.34162L121.486 5.55469C122.026 5.67188 122.502 5.82812 122.914 6.02344C123.329 6.21875 123.677 6.45135 123.958 6.72124C124.242 6.99112 124.457 7.30185 124.602 7.65341C124.748 8.00497 124.822 8.39915 124.826 8.83594C124.822 9.52486 124.648 10.1161 124.304 10.6097C123.96 11.1033 123.464 11.4815 122.818 11.7443C122.175 12.0071 121.399 12.1385 120.49 12.1385C119.577 12.1385 118.782 12.0018 118.104 11.7283C117.425 11.4549 116.898 11.0394 116.522 10.4819C116.145 9.92436 115.952 9.21946 115.941 8.36719H118.466C118.487 8.71875 118.581 9.01172 118.748 9.24609C118.915 9.48047 119.144 9.65803 119.435 9.77876C119.73 9.8995 120.071 9.95987 120.458 9.95987C120.813 9.95987 121.115 9.91193 121.364 9.81605C121.616 9.72017 121.809 9.587 121.944 9.41655C122.079 9.24609 122.148 9.05078 122.152 8.83061C122.148 8.62464 122.085 8.44886 121.96 8.30327C121.836 8.15412 121.644 8.02628 121.385 7.91974C121.129 7.80966 120.803 7.70845 120.405 7.61612L119.265 7.34979C118.32 7.13317 117.576 6.78338 117.033 6.30043C116.49 5.81392 116.22 5.15696 116.223 4.32955C116.22 3.65483 116.401 3.06357 116.767 2.55575C117.132 2.04794 117.638 1.65199 118.285 1.3679C118.931 1.08381 119.668 0.941761 120.495 0.941761C121.341 0.941761 122.074 1.08558 122.695 1.37322C123.32 1.65732 123.805 2.05682 124.15 2.57173C124.494 3.08665 124.67 3.68324 124.677 4.36151H122.152ZM139.677 6.54545C139.677 7.74574 139.446 8.76314 138.984 9.59766C138.523 10.4322 137.898 11.0661 137.109 11.4993C136.325 11.9325 135.444 12.1491 134.467 12.1491C133.487 12.1491 132.605 11.9308 131.82 11.494C131.035 11.0572 130.412 10.4233 129.95 9.59233C129.492 8.75781 129.263 7.74219 129.263 6.54545C129.263 5.34517 129.492 4.32777 129.95 3.49325C130.412 2.65874 131.035 2.02486 131.82 1.59162C132.605 1.15838 133.487 0.941761 134.467 0.941761C135.444 0.941761 136.325 1.15838 137.109 1.59162C137.898 2.02486 138.523 2.65874 138.984 3.49325C139.446 4.32777 139.677 5.34517 139.677 6.54545ZM136.982 6.54545C136.982 5.83523 136.88 5.23509 136.678 4.74503C136.479 4.25497 136.191 3.88388 135.815 3.63175C135.442 3.37962 134.993 3.25355 134.467 3.25355C133.945 3.25355 133.496 3.37962 133.12 3.63175C132.743 3.88388 132.454 4.25497 132.251 4.74503C132.053 5.23509 131.953 5.83523 131.953 6.54545C131.953 7.25568 132.053 7.85582 132.251 8.34588C132.454 8.83594 132.743 9.20703 133.12 9.45916C133.496 9.71129 133.945 9.83736 134.467 9.83736C134.993 9.83736 135.442 9.71129 135.815 9.45916C136.191 9.20703 136.479 8.83594 136.678 8.34588C136.88 7.85582 136.982 7.25568 136.982 6.54545ZM141.216 12V1.09091H148.663V3.23224H143.853V5.46946H148.189V7.61612H143.853V12H141.216ZM153.213 12V1.09091H157.72C158.536 1.09091 159.241 1.25071 159.834 1.57031C160.431 1.88636 160.891 2.32848 161.214 2.89666C161.537 3.46129 161.699 4.11825 161.699 4.86754C161.699 5.62038 161.534 6.27912 161.203 6.84375C160.877 7.40483 160.41 7.83984 159.802 8.14879C159.195 8.45774 158.474 8.61222 157.64 8.61222H154.859V6.5348H157.15C157.547 6.5348 157.88 6.46555 158.146 6.32706C158.416 6.18857 158.62 5.99503 158.758 5.74645C158.897 5.49432 158.966 5.20135 158.966 4.86754C158.966 4.53018 158.897 4.23899 158.758 3.99396C158.62 3.74538 158.416 3.55362 158.146 3.41868C157.876 3.28374 157.544 3.21626 157.15 3.21626H155.85V12H153.213ZM162.998 12V1.09091H165.635V5.46946H169.934V1.09091H172.565V12H169.934V7.61612H165.635V12H162.998ZM173.676 1.09091H176.622L178.928 5.65589H179.024L181.33 1.09091H184.276L180.286 8.35653V12H177.666V8.35653L173.676 1.09091ZM191.278 4.36151C191.242 3.97088 191.084 3.66726 190.804 3.45064C190.527 3.23047 190.131 3.12038 189.616 3.12038C189.275 3.12038 188.991 3.16477 188.764 3.25355C188.536 3.34233 188.366 3.46484 188.252 3.62109C188.139 3.77379 188.08 3.94957 188.077 4.14844C188.07 4.31179 188.101 4.45561 188.172 4.5799C188.247 4.70419 188.354 4.81428 188.492 4.91016C188.634 5.00249 188.805 5.08416 189.003 5.15518C189.202 5.22621 189.426 5.28835 189.675 5.34162L190.612 5.55469C191.152 5.67188 191.628 5.82812 192.04 6.02344C192.455 6.21875 192.803 6.45135 193.084 6.72124C193.368 6.99112 193.583 7.30185 193.728 7.65341C193.874 8.00497 193.948 8.39915 193.952 8.83594C193.948 9.52486 193.774 10.1161 193.43 10.6097C193.085 11.1033 192.59 11.4815 191.944 11.7443C191.301 12.0071 190.525 12.1385 189.616 12.1385C188.703 12.1385 187.908 12.0018 187.23 11.7283C186.551 11.4549 186.024 11.0394 185.648 10.4819C185.271 9.92436 185.078 9.21946 185.067 8.36719H187.592C187.613 8.71875 187.707 9.01172 187.874 9.24609C188.041 9.48047 188.27 9.65803 188.561 9.77876C188.856 9.8995 189.197 9.95987 189.584 9.95987C189.939 9.95987 190.241 9.91193 190.49 9.81605C190.742 9.72017 190.935 9.587 191.07 9.41655C191.205 9.24609 191.274 9.05078 191.278 8.83061C191.274 8.62464 191.21 8.44886 191.086 8.30327C190.962 8.15412 190.77 8.02628 190.511 7.91974C190.255 7.80966 189.929 7.70845 189.531 7.61612L188.391 7.34979C187.446 7.13317 186.702 6.78338 186.159 6.30043C185.616 5.81392 185.346 5.15696 185.349 4.32955C185.346 3.65483 185.527 3.06357 185.893 2.55575C186.258 2.04794 186.764 1.65199 187.411 1.3679C188.057 1.08381 188.794 0.941761 189.621 0.941761C190.467 0.941761 191.2 1.08558 191.821 1.37322C192.446 1.65732 192.931 2.05682 193.275 2.57173C193.62 3.08665 193.796 3.68324 193.803 4.36151H191.278ZM197.92 1.09091V12H195.284V1.09091H197.92ZM209.478 5.04332H206.815C206.779 4.76989 206.706 4.52308 206.596 4.30291C206.486 4.08274 206.341 3.89453 206.159 3.73828C205.978 3.58203 205.763 3.46307 205.515 3.38139C205.27 3.29616 204.998 3.25355 204.7 3.25355C204.171 3.25355 203.714 3.38317 203.331 3.6424C202.951 3.90163 202.658 4.27628 202.452 4.76633C202.25 5.25639 202.148 5.84943 202.148 6.54545C202.148 7.26989 202.251 7.87713 202.457 8.36719C202.667 8.85369 202.96 9.22124 203.336 9.46982C203.716 9.71484 204.165 9.83736 204.684 9.83736C204.975 9.83736 205.24 9.80007 205.478 9.7255C205.719 9.65092 205.93 9.54261 206.112 9.40057C206.296 9.25497 206.447 9.07919 206.564 8.87322C206.685 8.66371 206.768 8.42756 206.815 8.16477L209.478 8.18075C209.432 8.66371 209.292 9.13956 209.057 9.60831C208.826 10.0771 208.509 10.505 208.104 10.892C207.699 11.2756 207.205 11.581 206.623 11.8082C206.044 12.0355 205.38 12.1491 204.631 12.1491C203.643 12.1491 202.759 11.9325 201.978 11.4993C201.2 11.0625 200.586 10.4268 200.135 9.59233C199.684 8.75781 199.458 7.74219 199.458 6.54545C199.458 5.34517 199.688 4.32777 200.146 3.49325C200.604 2.65874 201.223 2.02486 202.005 1.59162C202.786 1.15838 203.661 0.941761 204.631 0.941761C205.291 0.941761 205.902 1.03409 206.463 1.21875C207.024 1.39986 207.518 1.66619 207.944 2.01776C208.37 2.36577 208.716 2.79368 208.983 3.30149C209.249 3.8093 209.414 4.38991 209.478 5.04332ZM216.883 4.36151C216.848 3.97088 216.69 3.66726 216.409 3.45064C216.132 3.23047 215.736 3.12038 215.222 3.12038C214.881 3.12038 214.597 3.16477 214.369 3.25355C214.142 3.34233 213.972 3.46484 213.858 3.62109C213.744 3.77379 213.686 3.94957 213.682 4.14844C213.675 4.31179 213.707 4.45561 213.778 4.5799C213.853 4.70419 213.959 4.81428 214.098 4.91016C214.24 5.00249 214.41 5.08416 214.609 5.15518C214.808 5.22621 215.032 5.28835 215.28 5.34162L216.218 5.55469C216.757 5.67188 217.233 5.82812 217.645 6.02344C218.061 6.21875 218.409 6.45135 218.689 6.72124C218.973 6.99112 219.188 7.30185 219.334 7.65341C219.479 8.00497 219.554 8.39915 219.557 8.83594C219.554 9.52486 219.38 10.1161 219.035 10.6097C218.691 11.1033 218.196 11.4815 217.549 11.7443C216.907 12.0071 216.131 12.1385 215.222 12.1385C214.309 12.1385 213.513 12.0018 212.835 11.7283C212.157 11.4549 211.63 11.0394 211.253 10.4819C210.877 9.92436 210.683 9.21946 210.672 8.36719H213.197C213.219 8.71875 213.313 9.01172 213.48 9.24609C213.647 9.48047 213.876 9.65803 214.167 9.77876C214.462 9.8995 214.802 9.95987 215.19 9.95987C215.545 9.95987 215.847 9.91193 216.095 9.81605C216.347 9.72017 216.541 9.587 216.676 9.41655C216.811 9.24609 216.88 9.05078 216.883 8.83061C216.88 8.62464 216.816 8.44886 216.692 8.30327C216.567 8.15412 216.376 8.02628 216.116 7.91974C215.861 7.80966 215.534 7.70845 215.136 7.61612L213.996 7.34979C213.052 7.13317 212.308 6.78338 211.764 6.30043C211.221 5.81392 210.951 5.15696 210.955 4.32955C210.951 3.65483 211.132 3.06357 211.498 2.55575C211.864 2.04794 212.37 1.65199 213.016 1.3679C213.663 1.08381 214.399 0.941761 215.227 0.941761C216.072 0.941761 216.805 1.08558 217.427 1.37322C218.052 1.65732 218.536 2.05682 218.881 2.57173C219.225 3.08665 219.401 3.68324 219.408 4.36151H216.883Z" fill="#FEFEFE"/>
</svg>
