<svg width="42" height="11" viewBox="0 0 42 11" fill="none" xmlns="http://www.w3.org/2000/svg">
<path d="M3.32031 8.09943C2.79001 8.09943 2.31889 8.00355 1.90696 7.81179C1.49503 7.62003 1.16951 7.35606 0.930398 7.01989C0.693655 6.68371 0.570549 6.29782 0.56108 5.86222H2.26562C2.27983 6.12973 2.38873 6.34517 2.59233 6.50852C2.79593 6.66951 3.03859 6.75 3.32031 6.75C3.54048 6.75 3.7358 6.70147 3.90625 6.6044C4.0767 6.50734 4.21046 6.37121 4.30753 6.19602C4.40459 6.01847 4.45194 5.81487 4.44957 5.58523C4.45194 5.35085 4.40341 5.14607 4.30398 4.97088C4.20691 4.79569 4.07197 4.65956 3.89915 4.5625C3.72869 4.46307 3.5322 4.41335 3.30966 4.41335C3.09896 4.41098 2.89891 4.45715 2.70952 4.55185C2.52249 4.64654 2.38045 4.77557 2.28338 4.93892L0.731534 4.64773L1.04759 0.727273H5.71378V2.14418H2.4929L2.32599 3.85938H2.36861C2.48935 3.65814 2.68348 3.49242 2.95099 3.36222C3.22088 3.22964 3.52746 3.16335 3.87074 3.16335C4.30634 3.16335 4.6946 3.26515 5.03551 3.46875C5.37879 3.66998 5.64867 3.94934 5.84517 4.30682C6.04403 4.6643 6.14347 5.07386 6.14347 5.53551C6.14347 6.03504 6.02509 6.47775 5.78835 6.86364C5.55398 7.24953 5.22491 7.55256 4.80114 7.77273C4.37974 7.99053 3.88613 8.09943 3.32031 8.09943ZM9.0332 2.15483V0.727273H15.1802V2.15483H12.975V8H11.242V2.15483H9.0332ZM17.7939 8.10298C17.2209 8.10298 16.7285 7.9858 16.3166 7.75142C15.907 7.51468 15.591 7.18561 15.3684 6.7642C15.1483 6.34044 15.0382 5.8492 15.0382 5.29048C15.0382 4.7294 15.1483 4.23816 15.3684 3.81676C15.591 3.39299 15.907 3.06392 16.3166 2.82955C16.7285 2.5928 17.2209 2.47443 17.7939 2.47443C18.3668 2.47443 18.858 2.5928 19.2676 2.82955C19.6795 3.06392 19.9956 3.39299 20.2157 3.81676C20.4383 4.23816 20.5495 4.7294 20.5495 5.29048C20.5495 5.8492 20.4383 6.34044 20.2157 6.7642C19.9956 7.18561 19.6795 7.51468 19.2676 7.75142C18.858 7.9858 18.3668 8.10298 17.7939 8.10298ZM17.8045 6.79261C18.0128 6.79261 18.1892 6.72869 18.3336 6.60085C18.478 6.47301 18.5881 6.29545 18.6639 6.06818C18.742 5.84091 18.7811 5.57812 18.7811 5.27983C18.7811 4.9768 18.742 4.71165 18.6639 4.48438C18.5881 4.2571 18.478 4.07955 18.3336 3.9517C18.1892 3.82386 18.0128 3.75994 17.8045 3.75994C17.5891 3.75994 17.4068 3.82386 17.2576 3.9517C17.1109 4.07955 16.9984 4.2571 16.9203 4.48438C16.8445 4.71165 16.8066 4.9768 16.8066 5.27983C16.8066 5.57812 16.8445 5.84091 16.9203 6.06818C16.9984 6.29545 17.1109 6.47301 17.2576 6.60085C17.4068 6.72869 17.5891 6.79261 17.8045 6.79261ZM21.4391 10.0455V2.54545H23.1578V3.4794H23.2111C23.2821 3.31368 23.3828 3.15388 23.513 3C23.6455 2.84612 23.8136 2.72064 24.0172 2.62358C24.2232 2.52415 24.4694 2.47443 24.7559 2.47443C25.1346 2.47443 25.4886 2.57386 25.8176 2.77273C26.1491 2.97159 26.4166 3.27817 26.6202 3.69247C26.8238 4.10677 26.9256 4.63471 26.9256 5.27628C26.9256 5.89418 26.8274 6.41146 26.6309 6.82812C26.4367 7.24479 26.1739 7.55729 25.8425 7.76562C25.5134 7.97396 25.1477 8.07812 24.7452 8.07812C24.4706 8.07812 24.2327 8.03314 24.0314 7.94318C23.8302 7.85322 23.6609 7.73485 23.5236 7.58807C23.3887 7.44129 23.2845 7.28385 23.2111 7.11577H23.1756V10.0455H21.4391ZM23.1401 5.27273C23.1401 5.56629 23.1792 5.82197 23.2573 6.03977C23.3378 6.25758 23.4526 6.42685 23.6017 6.54759C23.7533 6.66596 23.9344 6.72514 24.1451 6.72514C24.3581 6.72514 24.5392 6.66596 24.6884 6.54759C24.8375 6.42685 24.95 6.25758 25.0257 6.03977C25.1039 5.82197 25.1429 5.56629 25.1429 5.27273C25.1429 4.97917 25.1039 4.72467 25.0257 4.50923C24.95 4.2938 24.8375 4.12689 24.6884 4.00852C24.5416 3.89015 24.3605 3.83097 24.1451 3.83097C23.932 3.83097 23.7509 3.88897 23.6017 4.00497C23.4526 4.12098 23.3378 4.2867 23.2573 4.50213C23.1792 4.71757 23.1401 4.97443 23.1401 5.27273ZM27.8356 8V2.54545H29.5721V8H27.8356ZM28.7056 1.9098C28.4618 1.9098 28.2522 1.82931 28.0771 1.66832C27.9019 1.50497 27.8143 1.30848 27.8143 1.07884C27.8143 0.851562 27.9019 0.657433 28.0771 0.496449C28.2522 0.333096 28.4618 0.25142 28.7056 0.25142C28.9518 0.25142 29.1613 0.333096 29.3342 0.496449C29.5094 0.657433 29.5969 0.851562 29.5969 1.07884C29.5969 1.30848 29.5094 1.50497 29.3342 1.66832C29.1613 1.82931 28.9518 1.9098 28.7056 1.9098ZM33.2235 8.10298C32.6483 8.10298 32.1547 7.98461 31.7427 7.74787C31.3332 7.51113 31.0183 7.18205 30.7981 6.76065C30.5779 6.33688 30.4679 5.84683 30.4679 5.29048C30.4679 4.73177 30.5779 4.24171 30.7981 3.82031C31.0207 3.39654 31.3367 3.06629 31.7463 2.82955C32.1582 2.5928 32.6494 2.47443 33.22 2.47443C33.7243 2.47443 34.1634 2.56558 34.5375 2.74787C34.9139 2.93016 35.2074 3.18821 35.4181 3.52202C35.6312 3.85346 35.7437 4.2429 35.7555 4.69034H34.1326C34.0995 4.41098 34.0048 4.192 33.8485 4.03338C33.6947 3.87476 33.4934 3.79545 33.2449 3.79545C33.0436 3.79545 32.8672 3.85227 32.7157 3.96591C32.5642 4.07718 32.4458 4.2429 32.3606 4.46307C32.2778 4.68087 32.2363 4.95076 32.2363 5.27273C32.2363 5.5947 32.2778 5.86695 32.3606 6.08949C32.4458 6.30966 32.5642 6.47656 32.7157 6.5902C32.8672 6.70147 33.0436 6.7571 33.2449 6.7571C33.4058 6.7571 33.5479 6.72277 33.671 6.65412C33.7965 6.58546 33.8994 6.48485 33.9799 6.35227C34.0604 6.21733 34.1113 6.05398 34.1326 5.86222H35.7555C35.7389 6.31203 35.6265 6.70502 35.4181 7.04119C35.2122 7.37737 34.9222 7.63897 34.5481 7.82599C34.1764 8.01065 33.7349 8.10298 33.2235 8.10298ZM41.4062 4.21094L39.8118 4.25355C39.7952 4.13991 39.7502 4.0393 39.6768 3.9517C39.6035 3.86174 39.5076 3.7919 39.3892 3.74219C39.2732 3.6901 39.1383 3.66406 38.9844 3.66406C38.7831 3.66406 38.6115 3.70431 38.4695 3.7848C38.3298 3.86529 38.2611 3.9742 38.2635 4.11151C38.2611 4.21804 38.3037 4.31037 38.3913 4.38849C38.4813 4.46662 38.6411 4.52936 38.8707 4.5767L39.9219 4.77557C40.4664 4.87973 40.8712 5.05256 41.1364 5.29403C41.4039 5.53551 41.5388 5.85511 41.5412 6.25284C41.5388 6.62689 41.4276 6.95241 41.2074 7.2294C40.9896 7.50639 40.6913 7.72183 40.3125 7.87571C39.9337 8.02723 39.5005 8.10298 39.0128 8.10298C38.2339 8.10298 37.6196 7.94318 37.1697 7.62358C36.7223 7.30161 36.4666 6.87074 36.4027 6.33097L38.1179 6.28835C38.1558 6.48722 38.254 6.63873 38.4126 6.7429C38.5713 6.84706 38.7737 6.89915 39.0199 6.89915C39.2424 6.89915 39.4235 6.85772 39.5632 6.77486C39.7029 6.692 39.7739 6.58191 39.7763 6.4446C39.7739 6.3215 39.7195 6.22325 39.6129 6.14986C39.5064 6.0741 39.3395 6.01491 39.1122 5.9723L38.1605 5.79119C37.6136 5.69176 37.2064 5.50829 36.9389 5.24077C36.6714 4.97088 36.5388 4.6276 36.5412 4.21094C36.5388 3.84635 36.6359 3.53504 36.8324 3.27699C37.0289 3.01657 37.3082 2.81771 37.6705 2.6804C38.0327 2.54309 38.46 2.47443 38.9524 2.47443C39.6911 2.47443 40.2734 2.6295 40.6996 2.93963C41.1257 3.2474 41.3613 3.67116 41.4062 4.21094Z" fill="white"/>
</svg>
