<svg width="243" height="13" viewBox="0 0 243 13" fill="none" xmlns="http://www.w3.org/2000/svg">
<path d="M0.825639 12V1.09091H8.27237V3.23224H3.46236V5.46946H7.7983V7.61612H3.46236V12H0.825639ZM16.1998 1.09091H18.8312V8.12749C18.8312 8.9407 18.6377 9.64915 18.2506 10.2528C17.8635 10.853 17.3238 11.3182 16.6313 11.6484C15.9388 11.9751 15.1345 12.1385 14.2183 12.1385C13.2915 12.1385 12.4818 11.9751 11.7893 11.6484C11.0969 11.3182 10.5589 10.853 10.1753 10.2528C9.79181 9.64915 9.60005 8.9407 9.60005 8.12749V1.09091H12.2368V7.89844C12.2368 8.27486 12.3184 8.61044 12.4818 8.90518C12.6487 9.19993 12.8813 9.43075 13.1796 9.59766C13.4779 9.76456 13.8241 9.84801 14.2183 9.84801C14.6125 9.84801 14.9569 9.76456 15.2517 9.59766C15.55 9.43075 15.7826 9.19993 15.9495 8.90518C16.1164 8.61044 16.1998 8.27486 16.1998 7.89844V1.09091ZM29.7683 1.09091V12H27.5311L23.1898 5.70383H23.1206V12H20.4838V1.09091H22.753L27.0463 7.37642H27.1369V1.09091H29.7683ZM35.4585 12H31.4262V1.09091H35.4532C36.5647 1.09091 37.5218 1.3093 38.3243 1.74609C39.1304 2.17933 39.7519 2.80433 40.1887 3.62109C40.6254 4.4343 40.8438 5.40732 40.8438 6.54013C40.8438 7.67649 40.6254 8.65305 40.1887 9.46982C39.7554 10.2866 39.1357 10.9134 38.3296 11.3501C37.5235 11.7834 36.5665 12 35.4585 12ZM34.0629 9.75213H35.3573C35.9681 9.75213 36.4848 9.64915 36.9074 9.44318C37.3335 9.23366 37.6549 8.89453 37.8715 8.42578C38.0917 7.95348 38.2018 7.32493 38.2018 6.54013C38.2018 5.75533 38.0917 5.13033 37.8715 4.66513C37.6514 4.19638 37.3264 3.85902 36.8968 3.65305C36.4706 3.44354 35.945 3.33878 35.32 3.33878H34.0629V9.75213ZM44.0985 12H41.2646L44.9454 1.09091H48.4557L52.1365 12H49.3026L46.7405 3.83949H46.6553L44.0985 12ZM43.7203 7.70668H49.6436V9.70952H43.7203V7.70668ZM53.311 1.09091H56.5763L59.3461 7.84517H59.474L62.2439 1.09091H65.5091V12H62.9417V5.29901H62.8511L60.2304 11.9308H58.5898L55.969 5.26172H55.8785V12H53.311V1.09091ZM67.1538 12V1.09091H74.7603V3.23224H69.7905V5.46946H74.3714V7.61612H69.7905V9.85866H74.7603V12H67.1538ZM85.696 1.09091V12H83.4588L79.1175 5.70383H79.0483V12H76.4116V1.09091H78.6808L82.9741 7.37642H83.0646V1.09091H85.696ZM86.9971 3.23224V1.09091H96.2176V3.23224H92.9097V12H90.3103V3.23224H86.9971ZM98.5028 12H95.6689L99.3497 1.09091H102.86L106.541 12H103.707L101.145 3.83949H101.06L98.5028 12ZM98.1246 7.70668H104.048V9.70952H98.1246V7.70668ZM107.715 12V1.09091H110.352V9.85866H114.89V12H107.715ZM122.152 4.36151C122.116 3.97088 121.958 3.66726 121.678 3.45064C121.401 3.23047 121.005 3.12038 120.49 3.12038C120.149 3.12038 119.865 3.16477 119.638 3.25355C119.411 3.34233 119.24 3.46484 119.126 3.62109C119.013 3.77379 118.954 3.94957 118.951 4.14844C118.944 4.31179 118.975 4.45561 119.047 4.5799C119.121 4.70419 119.228 4.81428 119.366 4.91016C119.508 5.00249 119.679 5.08416 119.877 5.15518C120.076 5.22621 120.3 5.28835 120.549 5.34162L121.486 5.55469C122.026 5.67188 122.502 5.82812 122.914 6.02344C123.329 6.21875 123.677 6.45135 123.958 6.72124C124.242 6.99112 124.457 7.30185 124.602 7.65341C124.748 8.00497 124.822 8.39915 124.826 8.83594C124.822 9.52486 124.648 10.1161 124.304 10.6097C123.96 11.1033 123.464 11.4815 122.818 11.7443C122.175 12.0071 121.399 12.1385 120.49 12.1385C119.577 12.1385 118.782 12.0018 118.104 11.7283C117.425 11.4549 116.898 11.0394 116.522 10.4819C116.145 9.92436 115.952 9.21946 115.941 8.36719H118.466C118.487 8.71875 118.581 9.01172 118.748 9.24609C118.915 9.48047 119.144 9.65803 119.435 9.77876C119.73 9.8995 120.071 9.95987 120.458 9.95987C120.813 9.95987 121.115 9.91193 121.364 9.81605C121.616 9.72017 121.809 9.587 121.944 9.41655C122.079 9.24609 122.148 9.05078 122.152 8.83061C122.148 8.62464 122.085 8.44886 121.96 8.30327C121.836 8.15412 121.644 8.02628 121.385 7.91974C121.129 7.80966 120.803 7.70845 120.405 7.61612L119.265 7.34979C118.32 7.13317 117.576 6.78338 117.033 6.30043C116.49 5.81392 116.22 5.15696 116.223 4.32955C116.22 3.65483 116.401 3.06357 116.767 2.55575C117.132 2.04794 117.638 1.65199 118.285 1.3679C118.931 1.08381 119.668 0.941761 120.495 0.941761C121.341 0.941761 122.074 1.08558 122.695 1.37322C123.32 1.65732 123.805 2.05682 124.15 2.57173C124.494 3.08665 124.67 3.68324 124.677 4.36151H122.152ZM139.677 6.54545C139.677 7.74574 139.446 8.76314 138.984 9.59766C138.523 10.4322 137.898 11.0661 137.109 11.4993C136.325 11.9325 135.444 12.1491 134.467 12.1491C133.487 12.1491 132.605 11.9308 131.82 11.494C131.035 11.0572 130.412 10.4233 129.95 9.59233C129.492 8.75781 129.263 7.74219 129.263 6.54545C129.263 5.34517 129.492 4.32777 129.95 3.49325C130.412 2.65874 131.035 2.02486 131.82 1.59162C132.605 1.15838 133.487 0.941761 134.467 0.941761C135.444 0.941761 136.325 1.15838 137.109 1.59162C137.898 2.02486 138.523 2.65874 138.984 3.49325C139.446 4.32777 139.677 5.34517 139.677 6.54545ZM136.982 6.54545C136.982 5.83523 136.88 5.23509 136.678 4.74503C136.479 4.25497 136.191 3.88388 135.815 3.63175C135.442 3.37962 134.993 3.25355 134.467 3.25355C133.945 3.25355 133.496 3.37962 133.12 3.63175C132.743 3.88388 132.454 4.25497 132.251 4.74503C132.053 5.23509 131.953 5.83523 131.953 6.54545C131.953 7.25568 132.053 7.85582 132.251 8.34588C132.454 8.83594 132.743 9.20703 133.12 9.45916C133.496 9.71129 133.945 9.83736 134.467 9.83736C134.993 9.83736 135.442 9.71129 135.815 9.45916C136.191 9.20703 136.479 8.83594 136.678 8.34588C136.88 7.85582 136.982 7.25568 136.982 6.54545ZM141.216 12V1.09091H148.663V3.23224H143.853V5.46946H148.189V7.61612H143.853V12H141.216ZM163.116 5.04332H160.452C160.417 4.76989 160.344 4.52308 160.234 4.30291C160.124 4.08274 159.978 3.89453 159.797 3.73828C159.616 3.58203 159.401 3.46307 159.153 3.38139C158.908 3.29616 158.636 3.25355 158.338 3.25355C157.809 3.25355 157.352 3.38317 156.969 3.6424C156.589 3.90163 156.296 4.27628 156.09 4.76633C155.887 5.25639 155.786 5.84943 155.786 6.54545C155.786 7.26989 155.889 7.87713 156.095 8.36719C156.305 8.85369 156.598 9.22124 156.974 9.46982C157.354 9.71484 157.803 9.83736 158.322 9.83736C158.613 9.83736 158.877 9.80007 159.115 9.7255C159.357 9.65092 159.568 9.54261 159.749 9.40057C159.934 9.25497 160.085 9.07919 160.202 8.87322C160.323 8.66371 160.406 8.42756 160.452 8.16477L163.116 8.18075C163.07 8.66371 162.929 9.13956 162.695 9.60831C162.464 10.0771 162.146 10.505 161.741 10.892C161.337 11.2756 160.843 11.581 160.261 11.8082C159.682 12.0355 159.018 12.1491 158.268 12.1491C157.281 12.1491 156.397 11.9325 155.616 11.4993C154.838 11.0625 154.224 10.4268 153.773 9.59233C153.322 8.75781 153.096 7.74219 153.096 6.54545C153.096 5.34517 153.325 4.32777 153.783 3.49325C154.241 2.65874 154.861 2.02486 155.642 1.59162C156.424 1.15838 157.299 0.941761 158.268 0.941761C158.929 0.941761 159.54 1.03409 160.101 1.21875C160.662 1.39986 161.155 1.66619 161.582 2.01776C162.008 2.36577 162.354 2.79368 162.62 3.30149C162.887 3.8093 163.052 4.38991 163.116 5.04332ZM164.624 12V1.09091H167.261V5.46946H171.56V1.09091H174.191V12H171.56V7.61612H167.261V12H164.624ZM175.845 12V1.09091H183.452V3.23224H178.482V5.46946H183.063V7.61612H178.482V9.85866H183.452V12H175.845ZM185.103 1.09091H188.368L191.138 7.84517H191.266L194.036 1.09091H197.301V12H194.734V5.29901H194.643L192.022 11.9308H190.382L187.761 5.26172H187.67V12H185.103V1.09091ZM201.582 1.09091V12H198.946V1.09091H201.582ZM209.134 4.36151C209.099 3.97088 208.941 3.66726 208.66 3.45064C208.383 3.23047 207.987 3.12038 207.472 3.12038C207.132 3.12038 206.847 3.16477 206.62 3.25355C206.393 3.34233 206.222 3.46484 206.109 3.62109C205.995 3.77379 205.937 3.94957 205.933 4.14844C205.926 4.31179 205.958 4.45561 206.029 4.5799C206.104 4.70419 206.21 4.81428 206.349 4.91016C206.491 5.00249 206.661 5.08416 206.86 5.15518C207.059 5.22621 207.282 5.28835 207.531 5.34162L208.469 5.55469C209.008 5.67188 209.484 5.82812 209.896 6.02344C210.312 6.21875 210.66 6.45135 210.94 6.72124C211.224 6.99112 211.439 7.30185 211.585 7.65341C211.73 8.00497 211.805 8.39915 211.808 8.83594C211.805 9.52486 211.631 10.1161 211.286 10.6097C210.942 11.1033 210.447 11.4815 209.8 11.7443C209.157 12.0071 208.382 12.1385 207.472 12.1385C206.56 12.1385 205.764 12.0018 205.086 11.7283C204.408 11.4549 203.881 11.0394 203.504 10.4819C203.128 9.92436 202.934 9.21946 202.923 8.36719H205.448C205.47 8.71875 205.564 9.01172 205.731 9.24609C205.898 9.48047 206.127 9.65803 206.418 9.77876C206.713 9.8995 207.053 9.95987 207.441 9.95987C207.796 9.95987 208.097 9.91193 208.346 9.81605C208.598 9.72017 208.792 9.587 208.927 9.41655C209.062 9.24609 209.131 9.05078 209.134 8.83061C209.131 8.62464 209.067 8.44886 208.943 8.30327C208.818 8.15412 208.627 8.02628 208.367 7.91974C208.112 7.80966 207.785 7.70845 207.387 7.61612L206.247 7.34979C205.303 7.13317 204.559 6.78338 204.015 6.30043C203.472 5.81392 203.202 5.15696 203.206 4.32955C203.202 3.65483 203.383 3.06357 203.749 2.55575C204.115 2.04794 204.621 1.65199 205.267 1.3679C205.914 1.08381 206.65 0.941761 207.478 0.941761C208.323 0.941761 209.056 1.08558 209.678 1.37322C210.303 1.65732 210.787 2.05682 211.132 2.57173C211.476 3.08665 211.652 3.68324 211.659 4.36151H209.134ZM212.783 3.23224V1.09091H222.004V3.23224H218.696V12H216.096V3.23224H212.783ZM223.291 12V1.09091H227.798C228.615 1.09091 229.32 1.23828 229.913 1.53303C230.509 1.82422 230.969 2.24325 231.292 2.79013C231.615 3.33345 231.777 3.97798 231.777 4.72372C231.777 5.48011 231.612 6.12287 231.282 6.65199C230.951 7.17756 230.483 7.57884 229.875 7.85582C229.268 8.12926 228.549 8.26598 227.718 8.26598H224.868V6.18857H227.228C227.626 6.18857 227.958 6.13707 228.224 6.03409C228.494 5.92756 228.698 5.76776 228.837 5.55469C228.975 5.33807 229.044 5.06108 229.044 4.72372C229.044 4.38636 228.975 4.1076 228.837 3.88743C228.698 3.66371 228.494 3.4968 228.224 3.38672C227.954 3.27308 227.622 3.21626 227.228 3.21626H225.928V12H223.291ZM229.433 7.0142L232.15 12H229.273L226.61 7.0142H229.433ZM232.196 1.09091H235.142L237.449 5.65589H237.544L239.851 1.09091H242.797L238.807 8.35653V12H236.186V8.35653L232.196 1.09091Z" fill="#FEFEFE"/>
</svg>
