<svg width="267" height="13" viewBox="0 0 267 13" fill="none" xmlns="http://www.w3.org/2000/svg">
<path d="M0.825639 12V1.09091H8.27237V3.23224H3.46236V5.46946H7.7983V7.61612H3.46236V12H0.825639ZM16.1998 1.09091H18.8312V8.12749C18.8312 8.9407 18.6377 9.64915 18.2506 10.2528C17.8635 10.853 17.3238 11.3182 16.6313 11.6484C15.9388 11.9751 15.1345 12.1385 14.2183 12.1385C13.2915 12.1385 12.4818 11.9751 11.7893 11.6484C11.0969 11.3182 10.5589 10.853 10.1753 10.2528C9.79181 9.64915 9.60005 8.9407 9.60005 8.12749V1.09091H12.2368V7.89844C12.2368 8.27486 12.3184 8.61044 12.4818 8.90518C12.6487 9.19993 12.8813 9.43075 13.1796 9.59766C13.4779 9.76456 13.8241 9.84801 14.2183 9.84801C14.6125 9.84801 14.9569 9.76456 15.2517 9.59766C15.55 9.43075 15.7826 9.19993 15.9495 8.90518C16.1164 8.61044 16.1998 8.27486 16.1998 7.89844V1.09091ZM29.7683 1.09091V12H27.5311L23.1898 5.70383H23.1206V12H20.4838V1.09091H22.753L27.0463 7.37642H27.1369V1.09091H29.7683ZM35.4585 12H31.4262V1.09091H35.4532C36.5647 1.09091 37.5218 1.3093 38.3243 1.74609C39.1304 2.17933 39.7519 2.80433 40.1887 3.62109C40.6254 4.4343 40.8438 5.40732 40.8438 6.54013C40.8438 7.67649 40.6254 8.65305 40.1887 9.46982C39.7554 10.2866 39.1357 10.9134 38.3296 11.3501C37.5235 11.7834 36.5665 12 35.4585 12ZM34.0629 9.75213H35.3573C35.9681 9.75213 36.4848 9.64915 36.9074 9.44318C37.3335 9.23366 37.6549 8.89453 37.8715 8.42578C38.0917 7.95348 38.2018 7.32493 38.2018 6.54013C38.2018 5.75533 38.0917 5.13033 37.8715 4.66513C37.6514 4.19638 37.3264 3.85902 36.8968 3.65305C36.4706 3.44354 35.945 3.33878 35.32 3.33878H34.0629V9.75213ZM44.0985 12H41.2646L44.9454 1.09091H48.4557L52.1365 12H49.3026L46.7405 3.83949H46.6553L44.0985 12ZM43.7203 7.70668H49.6436V9.70952H43.7203V7.70668ZM53.311 1.09091H56.5763L59.3461 7.84517H59.474L62.2439 1.09091H65.5091V12H62.9417V5.29901H62.8511L60.2304 11.9308H58.5898L55.969 5.26172H55.8785V12H53.311V1.09091ZM67.1538 12V1.09091H74.7603V3.23224H69.7905V5.46946H74.3714V7.61612H69.7905V9.85866H74.7603V12H67.1538ZM85.696 1.09091V12H83.4588L79.1175 5.70383H79.0483V12H76.4116V1.09091H78.6808L82.9741 7.37642H83.0646V1.09091H85.696ZM86.9971 3.23224V1.09091H96.2176V3.23224H92.9097V12H90.3103V3.23224H86.9971ZM98.5028 12H95.6689L99.3497 1.09091H102.86L106.541 12H103.707L101.145 3.83949H101.06L98.5028 12ZM98.1246 7.70668H104.048V9.70952H98.1246V7.70668ZM107.715 12V1.09091H110.352V9.85866H114.89V12H107.715ZM122.152 4.36151C122.116 3.97088 121.958 3.66726 121.678 3.45064C121.401 3.23047 121.005 3.12038 120.49 3.12038C120.149 3.12038 119.865 3.16477 119.638 3.25355C119.411 3.34233 119.24 3.46484 119.126 3.62109C119.013 3.77379 118.954 3.94957 118.951 4.14844C118.944 4.31179 118.975 4.45561 119.047 4.5799C119.121 4.70419 119.228 4.81428 119.366 4.91016C119.508 5.00249 119.679 5.08416 119.877 5.15518C120.076 5.22621 120.3 5.28835 120.549 5.34162L121.486 5.55469C122.026 5.67188 122.502 5.82812 122.914 6.02344C123.329 6.21875 123.677 6.45135 123.958 6.72124C124.242 6.99112 124.457 7.30185 124.602 7.65341C124.748 8.00497 124.822 8.39915 124.826 8.83594C124.822 9.52486 124.648 10.1161 124.304 10.6097C123.96 11.1033 123.464 11.4815 122.818 11.7443C122.175 12.0071 121.399 12.1385 120.49 12.1385C119.577 12.1385 118.782 12.0018 118.104 11.7283C117.425 11.4549 116.898 11.0394 116.522 10.4819C116.145 9.92436 115.952 9.21946 115.941 8.36719H118.466C118.487 8.71875 118.581 9.01172 118.748 9.24609C118.915 9.48047 119.144 9.65803 119.435 9.77876C119.73 9.8995 120.071 9.95987 120.458 9.95987C120.813 9.95987 121.115 9.91193 121.364 9.81605C121.616 9.72017 121.809 9.587 121.944 9.41655C122.079 9.24609 122.148 9.05078 122.152 8.83061C122.148 8.62464 122.085 8.44886 121.96 8.30327C121.836 8.15412 121.644 8.02628 121.385 7.91974C121.129 7.80966 120.803 7.70845 120.405 7.61612L119.265 7.34979C118.32 7.13317 117.576 6.78338 117.033 6.30043C116.49 5.81392 116.22 5.15696 116.223 4.32955C116.22 3.65483 116.401 3.06357 116.767 2.55575C117.132 2.04794 117.638 1.65199 118.285 1.3679C118.931 1.08381 119.668 0.941761 120.495 0.941761C121.341 0.941761 122.074 1.08558 122.695 1.37322C123.32 1.65732 123.805 2.05682 124.15 2.57173C124.494 3.08665 124.67 3.68324 124.677 4.36151H122.152ZM139.677 6.54545C139.677 7.74574 139.446 8.76314 138.984 9.59766C138.523 10.4322 137.898 11.0661 137.109 11.4993C136.325 11.9325 135.444 12.1491 134.467 12.1491C133.487 12.1491 132.605 11.9308 131.82 11.494C131.035 11.0572 130.412 10.4233 129.95 9.59233C129.492 8.75781 129.263 7.74219 129.263 6.54545C129.263 5.34517 129.492 4.32777 129.95 3.49325C130.412 2.65874 131.035 2.02486 131.82 1.59162C132.605 1.15838 133.487 0.941761 134.467 0.941761C135.444 0.941761 136.325 1.15838 137.109 1.59162C137.898 2.02486 138.523 2.65874 138.984 3.49325C139.446 4.32777 139.677 5.34517 139.677 6.54545ZM136.982 6.54545C136.982 5.83523 136.88 5.23509 136.678 4.74503C136.479 4.25497 136.191 3.88388 135.815 3.63175C135.442 3.37962 134.993 3.25355 134.467 3.25355C133.945 3.25355 133.496 3.37962 133.12 3.63175C132.743 3.88388 132.454 4.25497 132.251 4.74503C132.053 5.23509 131.953 5.83523 131.953 6.54545C131.953 7.25568 132.053 7.85582 132.251 8.34588C132.454 8.83594 132.743 9.20703 133.12 9.45916C133.496 9.71129 133.945 9.83736 134.467 9.83736C134.993 9.83736 135.442 9.71129 135.815 9.45916C136.191 9.20703 136.479 8.83594 136.678 8.34588C136.88 7.85582 136.982 7.25568 136.982 6.54545ZM141.216 12V1.09091H148.663V3.23224H143.853V5.46946H148.189V7.61612H143.853V12H141.216ZM153.213 1.09091H156.479L159.248 7.84517H159.376L162.146 1.09091H165.411V12H162.844V5.29901H162.753L160.133 11.9308H158.492L155.871 5.26172H155.781V12H153.213V1.09091ZM169.416 12H166.582L170.263 1.09091H173.773L177.454 12H174.62L172.058 3.83949H171.973L169.416 12ZM169.038 7.70668H174.961V9.70952H169.038V7.70668ZM176.909 3.23224V1.09091H186.13V3.23224H182.822V12H180.222V3.23224H176.909ZM187.417 12V1.09091H190.054V5.46946H194.353V1.09091H196.984V12H194.353V7.61612H190.054V12H187.417ZM198.638 12V1.09091H206.245V3.23224H201.275V5.46946H205.856V7.61612H201.275V9.85866H206.245V12H198.638ZM207.896 1.09091H211.161L213.931 7.84517H214.059L216.829 1.09091H220.094V12H217.527V5.29901H217.436L214.815 11.9308H213.175L210.554 5.26172H210.463V12H207.896V1.09091ZM224.098 12H221.265L224.945 1.09091H228.456L232.136 12H229.303L226.741 3.83949H226.655L224.098 12ZM223.72 7.70668H229.644V9.70952H223.72V7.70668ZM231.592 3.23224V1.09091H240.812V3.23224H237.504V12H234.905V3.23224H231.592ZM244.737 1.09091V12H242.1V1.09091H244.737ZM256.294 5.04332H253.631C253.596 4.76989 253.523 4.52308 253.413 4.30291C253.303 4.08274 253.157 3.89453 252.976 3.73828C252.795 3.58203 252.58 3.46307 252.331 3.38139C252.086 3.29616 251.815 3.25355 251.516 3.25355C250.987 3.25355 250.531 3.38317 250.147 3.6424C249.767 3.90163 249.474 4.27628 249.268 4.76633C249.066 5.25639 248.965 5.84943 248.965 6.54545C248.965 7.26989 249.068 7.87713 249.274 8.36719C249.483 8.85369 249.776 9.22124 250.153 9.46982C250.533 9.71484 250.982 9.83736 251.5 9.83736C251.792 9.83736 252.056 9.80007 252.294 9.7255C252.536 9.65092 252.747 9.54261 252.928 9.40057C253.113 9.25497 253.263 9.07919 253.381 8.87322C253.501 8.66371 253.585 8.42756 253.631 8.16477L256.294 8.18075C256.248 8.66371 256.108 9.13956 255.874 9.60831C255.643 10.0771 255.325 10.505 254.92 10.892C254.515 11.2756 254.022 11.581 253.439 11.8082C252.86 12.0355 252.196 12.1491 251.447 12.1491C250.46 12.1491 249.576 11.9325 248.794 11.4993C248.017 11.0625 247.402 10.4268 246.951 9.59233C246.5 8.75781 246.275 7.74219 246.275 6.54545C246.275 5.34517 246.504 4.32777 246.962 3.49325C247.42 2.65874 248.04 2.02486 248.821 1.59162C249.602 1.15838 250.478 0.941761 251.447 0.941761C252.108 0.941761 252.718 1.03409 253.279 1.21875C253.841 1.39986 254.334 1.66619 254.76 2.01776C255.186 2.36577 255.533 2.79368 255.799 3.30149C256.065 3.8093 256.23 4.38991 256.294 5.04332ZM263.7 4.36151C263.664 3.97088 263.506 3.66726 263.226 3.45064C262.949 3.23047 262.553 3.12038 262.038 3.12038C261.697 3.12038 261.413 3.16477 261.186 3.25355C260.958 3.34233 260.788 3.46484 260.674 3.62109C260.561 3.77379 260.502 3.94957 260.498 4.14844C260.491 4.31179 260.523 4.45561 260.594 4.5799C260.669 4.70419 260.775 4.81428 260.914 4.91016C261.056 5.00249 261.226 5.08416 261.425 5.15518C261.624 5.22621 261.848 5.28835 262.097 5.34162L263.034 5.55469C263.574 5.67188 264.05 5.82812 264.462 6.02344C264.877 6.21875 265.225 6.45135 265.506 6.72124C265.79 6.99112 266.005 7.30185 266.15 7.65341C266.296 8.00497 266.37 8.39915 266.374 8.83594C266.37 9.52486 266.196 10.1161 265.852 10.6097C265.507 11.1033 265.012 11.4815 264.366 11.7443C263.723 12.0071 262.947 12.1385 262.038 12.1385C261.125 12.1385 260.33 12.0018 259.652 11.7283C258.973 11.4549 258.446 11.0394 258.07 10.4819C257.693 9.92436 257.5 9.21946 257.489 8.36719H260.014C260.035 8.71875 260.129 9.01172 260.296 9.24609C260.463 9.48047 260.692 9.65803 260.983 9.77876C261.278 9.8995 261.619 9.95987 262.006 9.95987C262.361 9.95987 262.663 9.91193 262.911 9.81605C263.164 9.72017 263.357 9.587 263.492 9.41655C263.627 9.24609 263.696 9.05078 263.7 8.83061C263.696 8.62464 263.632 8.44886 263.508 8.30327C263.384 8.15412 263.192 8.02628 262.933 7.91974C262.677 7.80966 262.35 7.70845 261.953 7.61612L260.813 7.34979C259.868 7.13317 259.124 6.78338 258.581 6.30043C258.038 5.81392 257.768 5.15696 257.771 4.32955C257.768 3.65483 257.949 3.06357 258.315 2.55575C258.68 2.04794 259.186 1.65199 259.833 1.3679C260.479 1.08381 261.216 0.941761 262.043 0.941761C262.888 0.941761 263.622 1.08558 264.243 1.37322C264.868 1.65732 265.353 2.05682 265.697 2.57173C266.042 3.08665 266.218 3.68324 266.225 4.36151H263.7Z" fill="#FEFEFE"/>
</svg>
