<svg width="63" height="12" viewBox="0 0 63 12" fill="none" xmlns="http://www.w3.org/2000/svg">
<path d="M0.770597 11V0.818182H4.97656C5.73887 0.818182 6.39678 0.967329 6.95028 1.26562C7.5071 1.56061 7.93632 1.97325 8.23793 2.50355C8.53954 3.03054 8.69034 3.6437 8.69034 4.34304C8.69034 5.04569 8.53622 5.66051 8.22798 6.1875C7.92306 6.71117 7.48722 7.11719 6.92045 7.40554C6.35369 7.69389 5.68087 7.83807 4.90199 7.83807H2.30682V5.89915H4.4446C4.81581 5.89915 5.12571 5.83452 5.37429 5.70526C5.62618 5.57599 5.81676 5.39536 5.94602 5.16335C6.07528 4.92803 6.13991 4.65459 6.13991 4.34304C6.13991 4.02817 6.07528 3.75639 5.94602 3.5277C5.81676 3.29569 5.62618 3.11671 5.37429 2.99077C5.1224 2.86482 4.8125 2.80185 4.4446 2.80185H3.23153V11H0.770597ZM9.90341 11V0.818182H12.3643V4.90483H16.3764V0.818182H18.8324V11H16.3764V6.90838H12.3643V11H9.90341ZM19.869 0.818182H22.6183L24.771 5.07884H24.8604L27.0131 0.818182H29.7624L26.0387 7.59943V11H23.5927V7.59943L19.869 0.818182ZM36.2976 3.87074C36.2644 3.50615 36.117 3.22277 35.8551 3.0206C35.5966 2.8151 35.227 2.71236 34.7464 2.71236C34.4283 2.71236 34.1631 2.75379 33.951 2.83665C33.7389 2.91951 33.5798 3.03385 33.4737 3.17969C33.3677 3.32221 33.313 3.48627 33.3097 3.67188C33.303 3.82434 33.3329 3.95857 33.3991 4.07457C33.4688 4.19058 33.5682 4.29332 33.6974 4.38281C33.83 4.46899 33.9891 4.54522 34.1747 4.61151C34.3603 4.67779 34.5691 4.7358 34.8011 4.78551L35.6761 4.98438C36.1799 5.09375 36.6241 5.23958 37.0085 5.42188C37.3963 5.60417 37.7211 5.82126 37.983 6.07315C38.2481 6.32505 38.4486 6.61506 38.5845 6.94318C38.7204 7.27131 38.79 7.6392 38.7933 8.04688C38.79 8.68987 38.6276 9.24171 38.3061 9.70241C37.9846 10.1631 37.5223 10.5161 36.919 10.7614C36.3191 11.0066 35.5949 11.1293 34.7464 11.1293C33.8946 11.1293 33.1522 11.0017 32.5192 10.7464C31.8861 10.4912 31.3939 10.1035 31.0426 9.5831C30.6913 9.06274 30.5107 8.40483 30.5007 7.60938H32.8572C32.8771 7.9375 32.965 8.21094 33.1207 8.42969C33.2765 8.64844 33.4903 8.81416 33.7621 8.92685C34.0372 9.03954 34.3554 9.09588 34.7166 9.09588C35.0481 9.09588 35.3298 9.05114 35.5618 8.96165C35.7971 8.87216 35.9777 8.74787 36.1037 8.58878C36.2296 8.42969 36.2943 8.2474 36.2976 8.0419C36.2943 7.84967 36.2346 7.68561 36.1186 7.54972C36.0026 7.41051 35.8236 7.29119 35.5817 7.19176C35.343 7.08902 35.0381 6.99455 34.6669 6.90838L33.603 6.6598C32.7214 6.45762 32.027 6.13116 31.5199 5.6804C31.0128 5.22633 30.7609 4.61316 30.7642 3.84091C30.7609 3.21117 30.9299 2.65933 31.2713 2.18537C31.6127 1.71141 32.085 1.34186 32.6882 1.0767C33.2914 0.811553 33.9792 0.678977 34.7514 0.678977C35.5402 0.678977 36.2247 0.81321 36.8047 1.08168C37.388 1.34683 37.8404 1.7197 38.1619 2.20028C38.4834 2.68087 38.6475 3.23769 38.6541 3.87074H36.2976ZM42.4972 0.818182V11H40.0362V0.818182H42.4972ZM53.2843 4.5071H50.7985C50.7653 4.25189 50.6974 4.02154 50.5946 3.81605C50.4919 3.61056 50.356 3.4349 50.187 3.28906C50.0179 3.14323 49.8174 3.0322 49.5854 2.95597C49.3567 2.87642 49.1032 2.83665 48.8248 2.83665C48.3309 2.83665 47.905 2.95762 47.5471 3.19957C47.1924 3.44152 46.919 3.79119 46.7267 4.24858C46.5378 4.70597 46.4434 5.25947 46.4434 5.90909C46.4434 6.58523 46.5395 7.15199 46.7317 7.60938C46.9273 8.06345 47.2007 8.40649 47.552 8.63849C47.9067 8.86719 48.3259 8.98153 48.8098 8.98153C49.0816 8.98153 49.3285 8.94673 49.5506 8.87713C49.776 8.80753 49.9732 8.70644 50.1422 8.57386C50.3146 8.43797 50.4554 8.27391 50.5648 8.08168C50.6775 7.88613 50.7554 7.66572 50.7985 7.42045L53.2843 7.43537C53.2412 7.88613 53.1103 8.33026 52.8915 8.76776C52.6761 9.20526 52.3794 9.60464 52.0016 9.96591C51.6238 10.3239 51.1631 10.6089 50.6195 10.821C50.0792 11.0331 49.4595 11.1392 48.7601 11.1392C47.8387 11.1392 47.0134 10.937 46.2843 10.5327C45.5584 10.125 44.985 9.53172 44.5641 8.75284C44.1432 7.97396 43.9327 7.02604 43.9327 5.90909C43.9327 4.78883 44.1465 3.83925 44.574 3.06037C45.0016 2.28149 45.58 1.68987 46.3091 1.28551C47.0383 0.881155 47.8553 0.678977 48.7601 0.678977C49.3766 0.678977 49.9467 0.765151 50.4703 0.9375C50.994 1.10653 51.4547 1.35511 51.8525 1.68324C52.2502 2.00805 52.5733 2.40743 52.8219 2.88139C53.0705 3.35535 53.2246 3.89725 53.2843 4.5071ZM60.196 3.87074C60.1629 3.50615 60.0154 3.22277 59.7536 3.0206C59.495 2.8151 59.1255 2.71236 58.6449 2.71236C58.3267 2.71236 58.0616 2.75379 57.8494 2.83665C57.6373 2.91951 57.4782 3.03385 57.3722 3.17969C57.2661 3.32221 57.2114 3.48627 57.2081 3.67188C57.2015 3.82434 57.2313 3.95857 57.2976 4.07457C57.3672 4.19058 57.4666 4.29332 57.5959 4.38281C57.7285 4.46899 57.8875 4.54522 58.0732 4.61151C58.2588 4.67779 58.4676 4.7358 58.6996 4.78551L59.5746 4.98438C60.0784 5.09375 60.5225 5.23958 60.907 5.42188C61.2947 5.60417 61.6196 5.82126 61.8814 6.07315C62.1465 6.32505 62.3471 6.61506 62.483 6.94318C62.6188 7.27131 62.6884 7.6392 62.6918 8.04688C62.6884 8.68987 62.526 9.24171 62.2045 9.70241C61.883 10.1631 61.4207 10.5161 60.8175 10.7614C60.2176 11.0066 59.4934 11.1293 58.6449 11.1293C57.7931 11.1293 57.0507 11.0017 56.4176 10.7464C55.7846 10.4912 55.2924 10.1035 54.9411 9.5831C54.5897 9.06274 54.4091 8.40483 54.3991 7.60938H56.7557C56.7756 7.9375 56.8634 8.21094 57.0192 8.42969C57.175 8.64844 57.3887 8.81416 57.6605 8.92685C57.9356 9.03954 58.2538 9.09588 58.6151 9.09588C58.9465 9.09588 59.2282 9.05114 59.4602 8.96165C59.6955 8.87216 59.8762 8.74787 60.0021 8.58878C60.1281 8.42969 60.1927 8.2474 60.196 8.0419C60.1927 7.84967 60.133 7.68561 60.017 7.54972C59.901 7.41051 59.7221 7.29119 59.4801 7.19176C59.2415 7.08902 58.9366 6.99455 58.5653 6.90838L57.5014 6.6598C56.6198 6.45762 55.9254 6.13116 55.4183 5.6804C54.9112 5.22633 54.6593 4.61316 54.6626 3.84091C54.6593 3.21117 54.8284 2.65933 55.1697 2.18537C55.5111 1.71141 55.9834 1.34186 56.5866 1.0767C57.1899 0.811553 57.8776 0.678977 58.6499 0.678977C59.4387 0.678977 60.1231 0.81321 60.7031 1.08168C61.2865 1.34683 61.7389 1.7197 62.0604 2.20028C62.3819 2.68087 62.5459 3.23769 62.5526 3.87074H60.196Z" fill="white"/>
</svg>
